<?xml version="1.0" standalone="no"?>
<!DOCTYPE svg PUBLIC "-//W3C//DTD SVG 20010904//EN"
 "http://www.w3.org/TR/2001/REC-SVG-20010904/DTD/svg10.dtd">
<svg version="1.0" xmlns="http://www.w3.org/2000/svg"
 width="907.000000pt" height="146.000000pt" viewBox="0 0 907.000000 146.000000"
 preserveAspectRatio="xMidYMid meet">

<g transform="translate(0.000000,146.000000) scale(0.100000,-0.100000)"
fill="#000000" stroke="none">
<path d="M705 1316 c-13 -19 -14 -29 -5 -45 6 -12 15 -21 20 -21 10 0 25 -50
36 -116 5 -37 4 -43 -15 -49 -34 -11 -45 -44 -51 -155 l-5 -105 -68 -14 c-60
-13 -69 -12 -80 2 -34 44 -103 6 -77 -43 13 -24 65 -28 77 -6 6 11 120 46 149
46 3 0 3 -39 2 -87 l-3 -88 -69 -14 c-62 -13 -69 -13 -78 2 -13 24 -65 22 -78
-3 -16 -30 4 -60 40 -60 16 0 33 6 37 14 6 11 120 46 149 46 3 0 3 -39 2 -87
l-3 -87 -69 -14 c-62 -12 -70 -12 -78 2 -5 9 -22 16 -38 16 -36 0 -56 -30 -40
-60 13 -25 65 -27 78 -4 5 10 37 22 80 31 l72 14 26 -30 c25 -30 27 -30 132
-33 l106 -3 14 -69 c11 -54 11 -74 2 -91 -6 -12 -10 -33 -8 -46 2 -20 9 -24
38 -24 32 0 35 3 38 33 3 26 -1 35 -16 39 -15 3 -23 22 -35 76 -9 40 -12 76
-8 80 4 4 43 7 87 5 l78 -3 14 -69 c11 -54 11 -74 2 -91 -6 -12 -10 -33 -8
-46 4 -33 61 -40 78 -10 12 24 -2 61 -24 61 -13 0 -49 137 -40 152 3 4 41 8
84 8 l79 0 10 -37 c20 -75 24 -122 12 -137 -7 -8 -11 -25 -9 -38 4 -32 62 -39
78 -9 12 24 -2 61 -24 61 -8 0 -18 23 -25 58 -7 31 -15 67 -18 80 -3 15 -1 22
9 22 8 0 25 12 39 26 22 23 24 36 27 128 l4 103 71 16 c62 13 74 13 88 1 22
-20 57 -17 69 5 12 24 4 48 -21 61 -25 14 -27 13 -53 -15 -16 -17 -44 -29 -89
-39 l-67 -14 0 88 0 87 73 15 c62 14 74 14 88 2 25 -23 58 -17 71 12 11 23 10
29 -11 45 -30 25 -37 24 -65 -6 -16 -17 -44 -29 -89 -39 l-67 -14 0 88 0 87
73 15 c62 14 74 14 88 2 25 -22 58 -17 71 11 10 22 9 29 -10 47 -18 19 -25 20
-47 10 -14 -6 -25 -18 -25 -25 0 -10 -25 -19 -75 -29 l-76 -15 -15 29 c-20 39
-49 48 -159 48 -81 0 -94 2 -98 18 -26 91 -29 126 -15 136 23 18 28 42 12 65
-27 38 -74 21 -74 -27 0 -14 7 -30 15 -36 14 -10 44 -107 45 -143 0 -10 -23
-13 -84 -13 -72 0 -85 3 -89 18 -27 95 -30 125 -13 137 32 24 14 85 -25 85
-40 0 -55 -60 -22 -85 12 -9 42 -108 43 -142 0 -10 -23 -13 -85 -13 -95 0 -83
-10 -105 94 -9 40 -8 52 5 66 29 32 13 80 -27 80 -10 0 -25 -11 -33 -24z m676
-265 c18 -22 19 -43 19 -320 l0 -298 -26 -24 -26 -24 -288 0 -288 0 -26 24
-26 24 0 294 c0 189 4 301 11 314 6 11 20 24 32 29 12 5 152 8 310 7 l289 -2
19 -24z"/>
<path d="M961 878 c-5 -13 -34 -88 -65 -166 -31 -79 -56 -146 -56 -148 0 -2
16 -4 35 -4 31 0 35 3 46 40 l12 40 72 0 72 0 16 -40 c14 -36 19 -40 50 -40
l35 0 -67 168 -67 167 -37 3 c-31 3 -39 -1 -46 -20z m88 -170 c1 -15 -8 -18
-44 -18 -25 0 -45 4 -45 9 0 8 22 76 36 111 7 16 52 -71 53 -102z"/>
<path d="M1220 730 l0 -170 30 0 30 0 0 170 0 170 -30 0 -30 0 0 -170z"/>
<path d="M2090 709 l0 -301 153 4 c146 3 154 4 204 32 88 49 133 138 133 266
0 100 -23 166 -79 221 -63 64 -117 79 -283 79 l-128 0 0 -301z m315 221 c32
-16 53 -35 73 -68 25 -43 27 -56 27 -152 0 -93 -3 -110 -25 -150 -37 -67 -94
-92 -221 -98 l-99 -5 0 253 0 253 100 -6 c74 -4 112 -11 145 -27z"/>
<path d="M2740 710 l0 -300 35 0 35 0 0 136 0 136 84 -3 c65 -3 89 -8 105 -23
12 -11 37 -68 58 -132 l37 -114 33 0 c18 0 33 2 33 3 0 2 -15 52 -34 112 -26
80 -43 116 -67 141 -18 19 -31 35 -28 36 2 2 17 10 34 18 103 53 100 215 -5
268 -39 20 -59 22 -182 22 l-138 0 0 -300z m262 239 c72 -19 94 -125 39 -180
-29 -28 -32 -29 -130 -29 l-101 0 0 110 0 110 78 0 c42 0 94 -5 114 -11z"/>
<path d="M3300 710 l0 -300 190 0 190 0 0 25 0 25 -155 0 -155 0 0 115 c0 102
2 115 18 116 9 1 69 2 132 3 l115 1 3 28 3 27 -135 0 -136 0 0 105 0 105 150
0 150 0 0 25 0 25 -185 0 -185 0 0 -300z"/>
<path d="M3947 968 c-75 -216 -177 -508 -186 -531 -11 -28 -11 -28 26 -25 36
3 37 4 63 83 l27 80 130 3 131 3 27 -81 c28 -84 37 -94 77 -88 l24 3 -56 160
c-31 88 -78 222 -104 298 l-48 137 -48 0 c-48 0 -48 0 -63 -42z m119 -170 c26
-79 49 -149 52 -155 3 -10 -22 -13 -107 -13 -61 0 -111 3 -111 8 0 18 104 302
111 302 4 0 29 -64 55 -142z"/>
<path d="M4390 711 l0 -301 30 0 30 0 0 245 c0 144 4 245 9 245 10 0 17 -17
117 -297 l69 -193 35 0 36 0 88 245 c49 135 92 245 97 245 5 0 9 -110 9 -245
l0 -245 30 0 30 0 0 300 0 300 -48 0 -49 0 -90 -252 c-49 -138 -93 -253 -99
-255 -5 -2 -49 111 -99 250 l-90 252 -52 3 -53 3 0 -300z"/>
<path d="M5160 710 l0 -300 35 0 35 0 0 135 0 135 79 0 c108 0 121 -12 171
-155 36 -107 38 -110 69 -113 17 -2 31 0 31 3 0 18 -55 184 -71 217 -11 21
-28 42 -39 48 -28 15 -25 23 18 42 50 23 72 63 72 130 0 69 -26 113 -83 138
-35 16 -66 20 -179 20 l-138 0 0 -300z m262 240 c50 -14 68 -43 68 -108 0 -43
-5 -58 -25 -77 -23 -23 -31 -25 -130 -25 l-105 0 0 110 0 110 78 0 c42 0 94
-5 114 -10z"/>
<path d="M5730 710 l0 -300 185 0 185 0 0 25 0 25 -155 0 -156 0 3 116 3 116
130 1 130 2 3 28 3 27 -135 0 -136 0 0 105 0 105 155 0 155 0 0 25 0 25 -185
0 -185 0 0 -300z"/>
<path d="M6240 711 l0 -301 35 0 35 0 0 245 c0 135 3 245 8 245 4 0 75 -109
157 -243 150 -242 150 -242 188 -245 l37 -3 0 300 0 301 -30 0 -30 0 0 -231
c0 -180 -3 -230 -12 -227 -7 3 -77 105 -156 229 l-143 224 -44 3 -45 3 0 -300z"/>
<path d="M6890 710 l0 -300 128 0 c167 0 220 15 283 79 56 58 74 115 73 231 0
103 -27 172 -85 224 -55 51 -119 66 -271 66 l-128 0 0 -300z m300 228 c47 -20
97 -79 107 -125 12 -56 9 -183 -6 -225 -28 -85 -116 -128 -261 -128 l-70 0 0
251 0 252 98 -5 c54 -3 113 -12 132 -20z"/>
<path d="M7540 710 l0 -300 185 0 185 0 0 25 0 24 -152 3 -153 3 0 115 0 115
93 -1 92 -1 0 28 0 29 -95 0 -96 0 3 103 3 102 153 3 152 3 0 24 0 25 -185 0
-185 0 0 -300z"/>
<path d="M8050 710 l0 -300 35 0 35 0 0 135 0 135 79 0 c108 0 121 -12 171
-155 36 -107 38 -110 69 -113 17 -2 31 0 31 3 0 18 -55 184 -71 217 -11 21
-28 42 -39 48 -28 15 -25 23 18 42 50 23 72 63 72 130 0 69 -26 113 -83 138
-35 16 -66 20 -179 20 l-138 0 0 -300z m262 240 c50 -14 68 -43 68 -108 0 -44
-4 -57 -26 -77 -25 -23 -34 -25 -130 -25 l-104 0 0 110 0 110 78 0 c42 0 94
-5 114 -10z"/>
</g>
</svg>
